<svg width="7" height="12" viewBox="0 0 7 12" fill="none" xmlns="http://www.w3.org/2000/svg">
<g clip-path="url(#clip0_113_1279)">
<path d="M1.34101 0.727629C1.29231 0.678929 1.2345 0.640298 1.17087 0.613942C1.10724 0.587586 1.03904 0.574021 0.97017 0.574021C0.901299 0.574021 0.833101 0.587586 0.769473 0.613942C0.705844 0.640298 0.648029 0.678929 0.599329 0.727629C0.55063 0.776328 0.512 0.834142 0.485644 0.897771C0.459288 0.9614 0.445723 1.0296 0.445723 1.09847C0.445723 1.16734 0.459288 1.23554 0.485644 1.29916C0.512 1.36279 0.55063 1.42061 0.599329 1.46931L4.38229 5.26273C4.34174 5.26273 4.93168 5.79905 4.38229 6.31704L0.595406 10.0935C0.499862 10.1933 0.446531 10.3261 0.446531 10.4643C0.446531 10.6025 0.499862 10.7353 0.595406 10.8351C0.644023 10.884 0.701811 10.9227 0.765451 10.9492C0.829091 10.9756 0.897329 10.9893 0.966246 10.9893C1.03516 10.9893 1.1034 10.9756 1.16704 10.9492C1.23068 10.9227 1.28847 10.884 1.33709 10.8351L6.02262 6.1483C6.07259 6.10033 6.11235 6.04275 6.13951 5.97902C6.16667 5.91529 6.18068 5.84674 6.18068 5.77746C6.18068 5.70819 6.16667 5.63963 6.13951 5.5759C6.11235 5.51218 6.07259 5.4546 6.02262 5.40662L1.34101 0.727629Z" fill="white" stroke="white" stroke-width="0.523231"/>
</g>
<defs>
<clipPath id="clip0_113_1279">
<rect width="10.9774" height="6.2997" fill="white" transform="matrix(0 -1 1 0 0.142792 11.25)"/>
</clipPath>
</defs>
</svg>
