<svg width="7" height="12" viewBox="0 0 7 12" fill="none" xmlns="http://www.w3.org/2000/svg">
<g clip-path="url(#clip0_113_1276)">
<path d="M5.65899 0.727629C5.70769 0.678929 5.7655 0.640298 5.82913 0.613942C5.89276 0.587586 5.96095 0.574021 6.02983 0.574021C6.0987 0.574021 6.16689 0.587586 6.23052 0.613942C6.29415 0.640298 6.35197 0.678929 6.40067 0.727629C6.44937 0.776328 6.488 0.834142 6.51435 0.897771C6.54071 0.9614 6.55427 1.0296 6.55427 1.09847C6.55427 1.16734 6.54071 1.23554 6.51435 1.29916C6.488 1.36279 6.44937 1.42061 6.40067 1.46931L2.6177 5.26273C2.65826 5.26273 2.06831 5.79905 2.6177 6.31704L6.40459 10.0935C6.50013 10.1933 6.55346 10.3261 6.55346 10.4643C6.55346 10.6025 6.50013 10.7353 6.40459 10.8351C6.35597 10.884 6.29818 10.9227 6.23454 10.9492C6.17091 10.9756 6.10267 10.9893 6.03375 10.9893C5.96483 10.9893 5.8966 10.9756 5.83296 10.9492C5.76932 10.9227 5.71153 10.884 5.66291 10.8351L0.977375 6.1483C0.927403 6.10033 0.887643 6.04275 0.860482 5.97902C0.833321 5.91529 0.819321 5.84674 0.819321 5.77746C0.819321 5.70819 0.833321 5.63963 0.860482 5.5759C0.887643 5.51218 0.927403 5.4546 0.977375 5.40662L5.65899 0.727629Z" fill="white" stroke="white" stroke-width="0.523231"/>
</g>
<defs>
<clipPath id="clip0_113_1276">
<rect width="10.9774" height="6.2997" fill="white" transform="matrix(0 -1 -1 0 6.85721 11.25)"/>
</clipPath>
</defs>
</svg>
